<svg width="1920" height="1080" viewBox="0 0 1920 1080" xmlns="http://www.w3.org/2000/svg"><rect width="1920" height="1080" fill="#ffffff"/><path d="M 0,1080 C 0,1080 0,180 0,180 C 90.24615384615385,161.45897435897436 180.4923076923077,142.91794871794872 277,136 C 373.5076923076923,129.08205128205128 476.276923076923,133.7871794871795 600,135 C 723.723076923077,136.2128205128205 868.4000000000001,133.93333333333334 988,151 C 1107.6,168.06666666666666 1202.1230769230767,204.47948717948717 1296,200 C 1389.8769230769233,195.52051282051283 1483.1076923076926,150.14871794871794 1587,140 C 1690.8923076923074,129.85128205128206 1805.4461538461537,154.92564102564103 1920,180 C 1920,180 1920,1080 1920,1080 Z" fill="#349a9d" opacity="0.09999999999999999"/><path d="M 0,1080 C 0,1080 0,360 0,360 C 112.55641025641026,347.05641025641023 225.11282051282052,334.1128205128205 339,324 C 452.8871794871795,313.8871794871795 568.1051282051283,306.6051282051282 681,315 C 793.8948717948717,323.3948717948718 904.4666666666667,347.46666666666664 1001,371 C 1097.5333333333333,394.53333333333336 1180.0282051282052,417.5282051282051 1285,407 C 1389.9717948717948,396.4717948717949 1517.420512820513,352.42051282051284 1627,339 C 1736.579487179487,325.57948717948716 1828.2897435897435,342.7897435897436 1920,360 C 1920,360 1920,1080 1920,1080 Z" fill="#349a9d" opacity="0.19999999999999998"/><path d="M 0,1080 C 0,1080 0,540 0,540 C 119.66410256410259,560.0615384615385 239.32820512820518,580.1230769230768 350,576 C 460.6717948717948,571.8769230769232 562.351282051282,543.5692307692309 663,523 C 763.648717948718,502.43076923076916 863.2666666666664,489.6 960,502 C 1056.7333333333336,514.4 1150.5820512820515,552.0307692307692 1247,557 C 1343.4179487179485,561.9692307692308 1442.4051282051282,534.276923076923 1555,526 C 1667.5948717948718,517.723076923077 1793.797435897436,528.8615384615384 1920,540 C 1920,540 1920,1080 1920,1080 Z" fill="#349a9d" opacity="0.3"/><path d="M 0,1080 C 0,1080 0,720 0,720 C 114.11538461538458,699.8641025641026 228.23076923076917,679.7282051282052 339,694 C 449.76923076923083,708.2717948717948 557.1923076923078,756.9512820512821 667,750 C 776.8076923076922,743.0487179487179 888.9999999999998,680.4666666666667 977,666 C 1065.0000000000002,651.5333333333333 1128.8076923076924,685.1820512820512 1229,703 C 1329.1923076923076,720.8179487179488 1465.7692307692307,722.8051282051282 1587,723 C 1708.2307692307693,723.1948717948718 1814.1153846153848,721.5974358974358 1920,720 C 1920,720 1920,1080 1920,1080 Z" fill="#349a9d" opacity="0.39999999999999997"/><path d="M 0,1080 C 0,1080 0,900 0,900 C 132.81794871794872,899.7025641025641 265.63589743589745,899.4051282051283 378,906 C 490.36410256410255,912.5948717948717 582.2743589743588,926.0820512820512 677,918 C 771.7256410256412,909.9179487179488 869.2666666666667,880.2666666666668 960,892 C 1050.7333333333333,903.7333333333332 1134.6589743589743,956.8512820512819 1243,948 C 1351.3410256410257,939.1487179487181 1484.097435897436,868.3282051282051 1601,850 C 1717.902564102564,831.6717948717949 1818.9512820512819,865.8358974358974 1920,900 C 1920,900 1920,1080 1920,1080 Z" fill="#349a9d" opacity="0.49999999999999994"/></svg>